<svg id="Ebene_1" data-name="Ebene 1" xmlns="http://www.w3.org/2000/svg" viewBox="0 0 147.44 18.79"><defs><style>.cls-1{fill:#008b8b;}.cls-2{fill:#daa621;}.cls-3{fill:#daa722;}</style></defs><path class="cls-1" d="M16.88,10.68a5.66,5.66,0,0,0-.18-1.24,4.65,4.65,0,0,0-1.25-2.29A5.55,5.55,0,0,0,11.3,5.7c-5.2,0-5.62,4.07-5.62,7.91a13.22,13.22,0,0,0,.74,5.11c.84,1.89,2.44,2.81,4.88,2.81s4-.84,4.89-2.52a5.93,5.93,0,0,0,.69-2.56.71.71,0,0,1,.74-.69.67.67,0,0,1,.69.69,7.37,7.37,0,0,1-.87,3.25C16.63,21.18,14.93,23,11.3,23a7.24,7.24,0,0,1-4-1,6.48,6.48,0,0,1-2.17-2.64,14.14,14.14,0,0,1-.87-5.67,14.31,14.31,0,0,1,.84-5.67A6.47,6.47,0,0,1,7.26,5.3a7.3,7.3,0,0,1,4-1,7.05,7.05,0,0,1,5.18,1.87,7,7,0,0,1,1.83,4.54v0a.67.67,0,0,1-.69.69A.71.71,0,0,1,16.88,10.68Z" transform="translate(-4.25 -4.25)"/><path class="cls-1" d="M23.14,20.76c-1.25-1.5-1.87-3.84-1.87-7.15a18.68,18.68,0,0,1,.42-4.21A6.94,6.94,0,0,1,23,6.46a5.59,5.59,0,0,1,2.32-1.68,8.53,8.53,0,0,1,3.11-.49,7.14,7.14,0,0,1,3.13.59,5.5,5.5,0,0,1,2.32,1.78c1.11,1.53,1.65,3.8,1.65,7a18,18,0,0,1-.42,4.05,7.68,7.68,0,0,1-1.4,2.93,6.27,6.27,0,0,1-5.28,2.34A6.28,6.28,0,0,1,23.14,20.76Zm.94-13.41c-.94,1.23-1.41,3.28-1.41,6.26s.52,5,1.51,6.26a5.08,5.08,0,0,0,4.24,1.63,4.93,4.93,0,0,0,4.22-1.82c1-1.31,1.48-3.36,1.48-6.07s-.45-4.78-1.36-6.06a5,5,0,0,0-4.34-1.83C26.32,5.72,24.94,6.24,24.08,7.35Z" transform="translate(-4.25 -4.25)"/><path class="cls-1" d="M47.85,10a.7.7,0,0,1-.71-.69h0a4.76,4.76,0,0,0-.55-1.85A3.67,3.67,0,0,0,43.14,5.7c-3.25,0-3.94,2-3.94,3.57a3.24,3.24,0,0,0,3,3.58.7.7,0,0,1-.09,1.4s-.08,0-.1,0a4.7,4.7,0,0,1-2.44-.89,4.1,4.1,0,0,1-1.31-1.58,5.45,5.45,0,0,1-.54-2.49,7.32,7.32,0,0,1,.07-1.06,5,5,0,0,1,.62-1.7,4.31,4.31,0,0,1,1.67-1.58,6.87,6.87,0,0,1,3-.64,5,5,0,0,1,4.71,2.49,5.76,5.76,0,0,1,.69,2.47v0A.71.71,0,0,1,47.85,10Zm.69,8.13a5.23,5.23,0,0,1-.66,2.72,4.28,4.28,0,0,1-1.73,1.5,7,7,0,0,1-3,.59c-2.76,0-4.1-1.3-4.71-2.39a5.49,5.49,0,0,1-.69-2.42.74.74,0,0,1,.71-.74.76.76,0,0,1,.72.74,3.74,3.74,0,0,0,.49,1.73,3.67,3.67,0,0,0,3.48,1.68c2.66,0,3.94-1.14,3.94-3.41,0-2.09-.91-3.35-2.76-3.69a.71.71,0,0,1,.3-1.39,4.55,4.55,0,0,1,2.22,1,3.86,3.86,0,0,1,1.2,1.57A6.1,6.1,0,0,1,48.54,18.12Z" transform="translate(-4.25 -4.25)"/><path class="cls-1" d="M53.82,9.37l-2.66-3.9a.69.69,0,0,1,.15-1,.77.77,0,0,1,1,.17L55,8.56a.7.7,0,0,1-.17,1,.79.79,0,0,1-.4.13A.78.78,0,0,1,53.82,9.37Zm3.06,12.8V13.81l-1.41-2.05a.7.7,0,0,1,.18-1,.68.68,0,0,1,1,.17l.94,1.38,5.28-7.69a.73.73,0,0,1,1-.17.71.71,0,0,1,.2,1l-5.75,8.34v8.36a.7.7,0,0,1-1.4,0Z" transform="translate(-4.25 -4.25)"/><path class="cls-2" d="M88.49,6.76a2.19,2.19,0,0,0-.07-.48,1.83,1.83,0,0,0-.49-.9,2.19,2.19,0,0,0-1.62-.57c-2,0-2.2,1.6-2.2,3.1a5.18,5.18,0,0,0,.29,2A1.86,1.86,0,0,0,86.31,11a2,2,0,0,0,1.91-1,2.36,2.36,0,0,0,.27-1,.28.28,0,0,1,.29-.27.27.27,0,0,1,.27.27,2.91,2.91,0,0,1-.34,1.28,2.53,2.53,0,0,1-2.4,1.27,2.88,2.88,0,0,1-1.58-.41,2.65,2.65,0,0,1-.85-1,5.7,5.7,0,0,1-.33-2.22,5.57,5.57,0,0,1,.33-2.22,2.53,2.53,0,0,1,.84-1,2.89,2.89,0,0,1,1.59-.41,2.71,2.71,0,0,1,2,.74,2.7,2.7,0,0,1,.72,1.77h0a.26.26,0,0,1-.27.27A.28.28,0,0,1,88.49,6.76Z" transform="translate(-4.25 -4.25)"/><path class="cls-2" d="M91.58,10.71a4.33,4.33,0,0,1-.73-2.8A7.67,7.67,0,0,1,91,6.26a2.77,2.77,0,0,1,.51-1.15,2.06,2.06,0,0,1,.91-.65,3.18,3.18,0,0,1,1.22-.2,2.86,2.86,0,0,1,1.22.23,2.17,2.17,0,0,1,.91.7,4.64,4.64,0,0,1,.65,2.72,6.71,6.71,0,0,1-.17,1.58,2.93,2.93,0,0,1-.55,1.15,2.85,2.85,0,0,1-4.13.07ZM92,5.46a4.08,4.08,0,0,0-.55,2.45A4,4,0,0,0,92,10.36a2,2,0,0,0,1.66.64,1.94,1.94,0,0,0,1.65-.71,4.13,4.13,0,0,0,.58-2.38,4.15,4.15,0,0,0-.53-2.37,1.94,1.94,0,0,0-1.7-.72A2,2,0,0,0,92,5.46Z" transform="translate(-4.25 -4.25)"/><path class="cls-2" d="M98.48,11.53a.27.27,0,0,1-.27-.28V4.57a.27.27,0,0,1,.27-.28h1.9a3.15,3.15,0,0,1,1.48.45,3.05,3.05,0,0,1,1,1.11,4.45,4.45,0,0,1,.44,2.06,4.62,4.62,0,0,1-.41,2.06,2.9,2.9,0,0,1-1,1.1,2.78,2.78,0,0,1-1.39.46Zm2.1-.55a2.12,2.12,0,0,0,1.1-.39,3.07,3.07,0,0,0,1.1-2.68,2.92,2.92,0,0,0-1.2-2.67,2.42,2.42,0,0,0-1.2-.4H98.76V11Z" transform="translate(-4.25 -4.25)"/><path class="cls-2" d="M119.57,8.73h-1V4.57a.32.32,0,0,0-.19-.27.27.27,0,0,0-.31.1l-3.36,4.45a.27.27,0,0,0,0,.29.28.28,0,0,0,.25.14h3.07v2a.28.28,0,0,0,.28.28.27.27,0,0,0,.28-.28v-2h1a.27.27,0,0,0,.27-.27A.28.28,0,0,0,119.57,8.73Zm-1.52-3.34V8.73h-2.52Z" transform="translate(-4.25 -4.25)"/><path class="cls-2" d="M109.48,11h-3.75V7.7h2.78a.28.28,0,0,0,.28-.27.28.28,0,0,0-.28-.28h-2.78V4.84h3.75a.28.28,0,0,0,0-.55h-4a.26.26,0,0,0-.27.27v6.69a.26.26,0,0,0,.27.27h4a.26.26,0,0,0,.27-.27A.27.27,0,0,0,109.48,11Z" transform="translate(-4.25 -4.25)"/><path class="cls-2" d="M82.65,22.31a3,3,0,0,1-.72-1.89V15.94a.27.27,0,1,1,.54,0v4.48a2.93,2.93,0,0,0,.25,1,1.81,1.81,0,0,0,3.17,0,2.84,2.84,0,0,0,.24-1V15.94a.27.27,0,0,1,.27-.28.28.28,0,0,1,.28.28v4.47a3.2,3.2,0,0,1-.29,1.25,2.27,2.27,0,0,1-.71.87,2.34,2.34,0,0,1-1.38.4A2.26,2.26,0,0,1,82.65,22.31Z" transform="translate(-4.25 -4.25)"/><path class="cls-2" d="M98.24,15.66H93.67a.28.28,0,0,0-.28.28.27.27,0,0,0,.28.27h2v6.41a.27.27,0,0,0,.28.28.28.28,0,0,0,.28-.28V16.21h2a.27.27,0,0,0,.28-.27A.28.28,0,0,0,98.24,15.66Z" transform="translate(-4.25 -4.25)"/><path class="cls-2" d="M104.42,22.52l-2.74-6.69a.26.26,0,0,0-.25-.17.27.27,0,0,0-.25.17l-2.77,6.69a.27.27,0,0,0,.15.36.22.22,0,0,0,.11,0,.3.3,0,0,0,.26-.16L99.67,21h3.51l.73,1.79a.28.28,0,0,0,.36.14A.27.27,0,0,0,104.42,22.52ZM99.9,20.39l1.53-3.72L103,20.39Z" transform="translate(-4.25 -4.25)"/><path class="cls-2" d="M105.7,22.62V15.94a.28.28,0,1,1,.55,0v6.68a.28.28,0,1,1-.55,0Z" transform="translate(-4.25 -4.25)"/><path class="cls-2" d="M113.28,15.66a.28.28,0,0,0-.27.28v5.79l-4.08-5.94a.28.28,0,0,0-.31-.12.29.29,0,0,0-.2.27v6.68a.28.28,0,0,0,.28.28.27.27,0,0,0,.27-.28V16.83l4.09,6a.25.25,0,0,0,.22.12h.09a.28.28,0,0,0,.19-.27V15.94A.29.29,0,0,0,113.28,15.66Z" transform="translate(-4.25 -4.25)"/><path class="cls-2" d="M121.25,22.52l-2.75-6.69a.25.25,0,0,0-.25-.17.28.28,0,0,0-.25.17l-2.77,6.69a.27.27,0,0,0,.16.36.16.16,0,0,0,.1,0,.29.29,0,0,0,.26-.16l.74-1.79H120l.73,1.79a.28.28,0,0,0,.36.14A.28.28,0,0,0,121.25,22.52Zm-4.53-2.13,1.53-3.72,1.53,3.72Z" transform="translate(-4.25 -4.25)"/><path class="cls-2" d="M126.94,19.1l-.06,0a1.7,1.7,0,0,0,.81-1.54,1.86,1.86,0,0,0-.3-1.08,1.66,1.66,0,0,0-.69-.56,2.42,2.42,0,0,0-.93-.23h-2.71a.28.28,0,0,0-.27.28v6.68a.28.28,0,0,0,.27.28h2.7a3,3,0,0,0,1.1-.23A1.74,1.74,0,0,0,127.92,21,2.05,2.05,0,0,0,126.94,19.1Zm-3.6-2.88h2.43a1.79,1.79,0,0,1,.71.17,1.18,1.18,0,0,1,.66,1.14,1.11,1.11,0,0,1-.59,1.08,1.65,1.65,0,0,1-.75.19h-2.46Zm3.29,5.94a2.36,2.36,0,0,1-.87.18h-2.42v-3h2.46a1.87,1.87,0,0,1,.86.22,1.53,1.53,0,0,1,.71,1.44A1.14,1.14,0,0,1,126.63,22.16Z" transform="translate(-4.25 -4.25)"/><path class="cls-2" d="M129.36,22.62V15.94a.28.28,0,1,1,.55,0v6.68a.28.28,0,1,1-.55,0Z" transform="translate(-4.25 -4.25)"/><path class="cls-2" d="M135.79,22.35h-3.4V15.94a.27.27,0,0,0-.27-.28.29.29,0,0,0-.28.28v6.69a.27.27,0,0,0,.08.19.28.28,0,0,0,.2.08h3.67a.28.28,0,1,0,0-.55Z" transform="translate(-4.25 -4.25)"/><path class="cls-2" d="M137.69,22.62V15.94a.28.28,0,0,1,.28-.28.27.27,0,0,1,.27.28v6.68a.27.27,0,0,1-.27.28A.27.27,0,0,1,137.69,22.62Z" transform="translate(-4.25 -4.25)"/><path class="cls-2" d="M145,15.66h-4.57a.28.28,0,0,0-.28.28.27.27,0,0,0,.28.27h2v6.41a.27.27,0,0,0,.28.28.28.28,0,0,0,.28-.28V16.21h2a.27.27,0,0,0,.28-.27A.28.28,0,0,0,145,15.66Z" transform="translate(-4.25 -4.25)"/><path class="cls-2" d="M151.57,15.71a.28.28,0,0,0-.39.07l-2.07,3-2.05-3a.3.3,0,0,0-.4-.07.29.29,0,0,0-.06.39l2.24,3.26v3.27a.28.28,0,0,0,.27.27.27.27,0,0,0,.28-.27V19.36l2.25-3.26A.28.28,0,0,0,151.57,15.71Z" transform="translate(-4.25 -4.25)"/><path class="cls-2" d="M92.19,17.86a.27.27,0,0,0,.27-.28h0a2.27,2.27,0,0,0-.27-1,2,2,0,0,0-1.84-1,2.57,2.57,0,0,0-1.18.26,1.69,1.69,0,0,0-.66.61,2.24,2.24,0,0,0-.24.67,2.6,2.6,0,0,0,0,.41,2.08,2.08,0,0,0,.22,1,1.52,1.52,0,0,0,.51.62,1.78,1.78,0,0,0,1,.34c.11,0,.8.06.9.08a1.29,1.29,0,0,1,1.08,1.45c0,.89-.5,1.33-1.54,1.33a1.38,1.38,0,0,1-1.56-1.33.28.28,0,1,0-.56,0,2.22,2.22,0,0,0,.27.95,2,2,0,0,0,1.85.93,2.6,2.6,0,0,0,1.16-.23,1.57,1.57,0,0,0,.68-.59,2,2,0,0,0,.26-1.06,2.48,2.48,0,0,0-.18-1,1.52,1.52,0,0,0-.47-.61,1.79,1.79,0,0,0-.87-.4L90,19a1.27,1.27,0,0,1-1.2-1.4c0-.62.27-1.4,1.55-1.4a1.46,1.46,0,0,1,1.35.69,1.86,1.86,0,0,1,.21.72A.27.27,0,0,0,92.19,17.86Z" transform="translate(-4.25 -4.25)"/><path class="cls-2" d="M79.85,17.86a.28.28,0,0,0,.27-.28h0a2.27,2.27,0,0,0-.27-1,2,2,0,0,0-1.84-1,2.57,2.57,0,0,0-1.18.26,1.69,1.69,0,0,0-.66.61,2.24,2.24,0,0,0-.24.67,2.6,2.6,0,0,0,0,.41,2.16,2.16,0,0,0,.21,1,1.63,1.63,0,0,0,.52.62,1.75,1.75,0,0,0,1,.34c.11,0,.8.06.9.08a1.29,1.29,0,0,1,1.08,1.45c0,.89-.5,1.33-1.54,1.33a1.45,1.45,0,0,1-1.37-.65,1.49,1.49,0,0,1-.19-.68.28.28,0,1,0-.56,0,2.22,2.22,0,0,0,.27.95,2,2,0,0,0,1.85.93,2.63,2.63,0,0,0,1.16-.23,1.69,1.69,0,0,0,.68-.59,2,2,0,0,0,.26-1.06,2.48,2.48,0,0,0-.18-1,1.46,1.46,0,0,0-.48-.61,1.71,1.71,0,0,0-.87-.4L77.66,19a1.26,1.26,0,0,1-1.2-1.4c0-.62.27-1.4,1.55-1.4a1.46,1.46,0,0,1,1.35.69,1.86,1.86,0,0,1,.21.72A.27.27,0,0,0,79.85,17.86Z" transform="translate(-4.25 -4.25)"/><path class="cls-3" d="M62.23,21.91,74.43,4.57a.71.71,0,0,1,1-.18.7.7,0,0,1,.16,1L63.39,22.72a.69.69,0,0,1-1,.19A.7.7,0,0,1,62.23,21.91Z" transform="translate(-4.25 -4.25)"/><path class="cls-1" d="M66.84,21.91,79.05,4.57a.71.71,0,1,1,1.16.81L68,22.72a.7.7,0,0,1-1,.19A.71.71,0,0,1,66.84,21.91Z" transform="translate(-4.25 -4.25)"/></svg>