<svg version="1.1" viewBox="0.0 0.0 960.0 720.0" fill="none" stroke="none" stroke-linecap="square" stroke-miterlimit="10" xmlns:xlink="http://www.w3.org/1999/xlink" xmlns="http://www.w3.org/2000/svg"><clipPath id="p.0"><path d="m0 0l960.0 0l0 720.0l-960.0 0l0 -720.0z" clip-rule="nonzero"/></clipPath><g clip-path="url(#p.0)"><path fill="#000000" fill-opacity="0.0" d="m0 0l960.0 0l0 720.0l-960.0 0z" fill-rule="evenodd"/><path fill="#00ffff" fill-opacity="0.3482" d="m297.56314 38.463917c-63.59166 0 -124.58087 25.26332 -169.5472 70.229645c-44.966316 44.968613 -70.22964 105.955536 -70.22964 169.5472c0 63.593933 25.26332 124.58087 70.22964 169.54947c44.966324 44.96634 105.955536 70.227356 169.5472 70.227356c63.591644 0 124.58087 -25.261017 169.54718 -70.227356c44.968597 -44.968597 70.229645 -105.955536 70.229645 -169.54947c0 -63.59166 -25.261047 -124.57858 -70.229645 -169.5472c-44.96631 -44.96632 -105.955536 -70.229645 -169.54718 -70.229645z" fill-rule="evenodd"/><path fill="#eeff41" fill-opacity="0.2723" d="m448.5056 199.2751c-5.945526 0 -11.6319275 0.6053314 -16.848328 2.0957184c-31.220306 8.919434 -48.068634 40.63272 -41.62555 81.26773c2.269989 14.323822 10.694153 18.240143 20.998505 18.240143c12.43219 0 27.599792 -5.7001953 38.005035 -5.7001953c5.434204 0 9.568329 1.554596 11.333893 6.289459c6.6700745 17.859497 13.7803955 89.68503 25.199097 125.58975c32.40805 -40.887238 51.771698 -92.59015 51.771698 -148.81696c0 -23.568863 -3.4187012 -46.337494 -9.75177 -67.8519c-1.3413696 0.16508484 -2.7720947 0.24304199 -4.2854614 0.24304199c-18.418945 0 -49.04309 -11.356796 -74.79712 -11.356796z" fill-rule="evenodd"/><path fill="#eeff41" fill-opacity="0.2723" d="m163.9482 79.12415c-48.16494 32.3851 -83.936676 81.78364 -98.70763 139.5857c14.300903 21.083344 40.197067 37.184174 79.99745 62.440613c51.533234 32.706116 11.395782 55.49997 29.72992 81.763c18.334137 26.263031 33.698944 19.324677 32.210846 60.454956c-1.0684967 29.596924 8.126083 65.86624 18.538208 83.693634c5.6107483 1.758667 11.30864 3.3155518 17.09137 4.6706543c0.3875122 -10.973877 -8.110031 -34.168976 5.500702 -52.188995c18.334122 -24.28424 71.35545 -67.64325 60.452652 -114.471405c-16.011414 -68.785126 -146.67537 -65.90292 -159.06398 -75.31763c-12.388611 -9.416992 -27.748833 -25.767761 -17.343597 -39.642166c10.407532 -13.876724 64.417114 -33.69896 87.70853 -49.55446c23.289124 -15.855484 66.89574 -49.55214 59.4644 -77.798546c-4.9847717 -18.93946 -33.58658 -22.06012 -51.890915 -22.06012c-8.995087 0 -15.50238 0.75437164 -15.50238 0.75437164c-0.2545166 0.0068740845 -0.5503082 0.01146698 -0.8873596 0.01146698c-5.963867 0 -24.316345 -1.2633972 -47.298218 -2.3410645z" fill-rule="evenodd"/><path fill="#eeff41" fill-opacity="0.2723" d="m483.30975 126.6058c-14.26651 2.7606735 -34.318024 4.757805 -41.24951 5.390648c-10.900513 0.99053955 -15.857788 35.182465 -15.857788 35.182465c-4.283142 -0.3187256 -7.603302 -0.7360382 -10.118622 -0.7360382c-5.34021 0 -7.064453 1.8893738 -6.727417 10.6483c0.4196167 10.944077 5.1315613 15.809631 12.615631 15.809631c1.3252869 0 2.7400208 -0.15362549 4.2304077 -0.45170593c9.912262 -1.9833679 14.86496 -22.78009 23.291412 -26.006226c2.808838 -1.0776672 5.8950806 -1.7403107 8.9079895 -1.7403107c6.0166016 0 11.739716 2.6437225 14.381134 9.909973c3.863556 10.623062 -5.922577 19.835983 -0.45858765 19.835983c0.1421814 0 0.29580688 -0.006881714 0.45858765 -0.018341064c6.4430847 -0.49526978 12.326721 -9.414703 8.887329 -21.803314c-1.490387 -5.369995 0.7933655 -7.8532257 4.230438 -7.8532257c4.4918213 0 10.950958 4.2395935 13.535065 11.819962c2.2309875 6.5371094 6.3261414 7.869293 10.570343 7.869293c2.7698364 0 5.603882 -0.5686493 8.020569 -0.6282654c-5.2713623 -12.290009 -11.563141 -24.119156 -18.811035 -35.35672c-5.3172607 -7.3694305 -9.900787 -15.896774 -15.905945 -21.872108z" fill-rule="evenodd"/><path fill="#001235" d="m294.15128 106.35249c2.30896 0 4.622528 0.025222778 6.9406433 0.07108307c63.95166 1.3161316 123.69812 20.439026 168.23795 53.84678c44.500885 33.380234 68.48935 77.01897 67.54697 122.8887c-0.9401245 45.86972 -26.70102 88.4881 -72.538635 120.01108c-44.186737 30.390259 -101.917694 46.958862 -163.26001 46.958862c-2.3433533 0 -4.6913147 -0.022918701 -7.0461426 -0.07107544c-63.947052 -1.3138428 -123.6935 -20.436737 -168.23792 -53.844482c-44.496277 -33.38025 -68.48703 -77.02127 -67.54465 -122.8887c1.9122887 -93.07852 107.08363 -166.97224 235.9018 -166.97224zm0.0046081543 -0.82315063c-129.263 0 -234.80582 74.258286 -236.73186 167.77934c-0.9469719 46.138 23.16072 90.019775 67.87941 123.562805c44.677414 33.510925 104.595825 52.69345 168.71255 54.009583c2.354828 0.04815674 4.6958923 0.07107544 7.0415344 0.07107544c61.50284 0 119.421814 -16.619019 163.74612 -47.103302c46.062347 -31.676605 71.94934 -74.53345 72.8963 -120.67374c0.9492798 -46.138016 -23.156128 -90.02208 -67.877106 -123.56511c-44.67743 -33.508644 -104.59354 -52.691154 -168.71255 -54.009583c-2.3250427 -0.04585266 -4.645447 -0.07107544 -6.9544067 -0.07107544z" fill-rule="evenodd"/><path fill="#001235" d="m297.56314 187.94353c131.98697 0 239.36642 40.50432 239.36642 90.297226c0 49.792908 -107.37717 90.2995 -239.36642 90.2995c-131.98697 0 -239.3641 -40.50659 -239.3641 -90.2995c0 -49.79062 107.37714 -90.297226 239.3641 -90.297226zm0 -0.82315063c-132.43867 0 -240.18726 40.875763 -240.18726 91.12038c0 50.246887 107.74859 91.12268 240.18726 91.12268c132.44098 0 240.18729 -40.875793 240.18729 -91.12268c0 -50.244614 -107.74631 -91.12038 -240.18729 -91.12038z" fill-rule="evenodd"/><path fill="#001235" d="m299.91107 38.901863c0.8506775 0 1.7151184 0.006877899 2.5703735 0.025222778c94.740875 1.9489746 169.6091 110.88758 166.90115 242.84705c-2.6872864 130.76025 -80.55463 235.80777 -174.15366 235.80777c-0.0022888184 0 -0.006866455 0 -0.009155273 0c-0.8529663 -0.0022583008 -1.7151184 -0.011474609 -2.5703735 -0.027526855c-45.86972 -0.9423828 -88.4881 -26.700958 -120.01108 -72.536285c-31.550491 -45.876617 -48.20392 -106.36139 -46.890076 -170.30844c2.6873016 -130.76714 80.55693 -235.8078 174.16281 -235.8078zm0.009185791 -0.82315445c-94.094284 0 -172.29868 105.40294 -174.99744 236.6149c-1.3138428 64.11905 15.387733 124.77347 47.034523 170.79224c31.676605 46.05548 74.53345 71.94476 120.67145 72.89172c0.86672974 0.018371582 1.7265625 0.02520752 2.5910034 0.02520752c94.039246 0 172.2872 -105.40521 174.98367 -236.61258c2.7216797 -132.41347 -72.51108 -241.73041 -167.70596 -243.68398c-0.8598633 -0.018341064 -1.719696 -0.027511597 -2.57724 -0.027511597z" fill-rule="evenodd"/><path fill="#001235" d="m297.56314 38.87664c49.792908 0 90.2995 107.37943 90.2995 239.3641c0 131.98697 -40.504303 239.36642 -90.2995 239.36642c-49.79062 0 -90.297226 -107.37717 -90.297226 -239.36642c0 -131.98698 40.506607 -239.3641 90.297226 -239.3641zm0 -0.82315445c-50.244614 0 -91.12038 107.74858 -91.12038 240.18727c0 132.44098 40.875763 240.18954 91.12038 240.18954c50.246887 0 91.12268 -107.74628 91.12268 -240.18954c0 -132.43869 -40.875793 -240.18727 -91.12268 -240.18727z" fill-rule="evenodd"/><path fill="#001235" d="m57.78631 277.82803l0 0.82543945l479.55365 0l0 -0.82543945z" fill-rule="evenodd"/><path fill="#001235" d="m297.15042 38.463917l0 479.55365l0.82315063 0l0 -479.55365z" fill-rule="evenodd"/></g></svg>